<svg xmlns="http://www.w3.org/2000/svg" viewBox="0 0 205.06 194.63"><defs><style>.cls-1{fill:#010101;}.cls-2{fill:#43260a;}.cls-3{fill:#fcfcfc;}.cls-4{fill:#ececec;}</style></defs><title>Asset 4</title><g id="Layer_2" data-name="Layer 2"><g id="Layer_1-2" data-name="Layer 1"><path class="cls-1" d="M205,87v6c.5,3.87-1.74,4.71-5,4.48a10.4,10.4,0,0,0-5.08,0H189c-6.2-.51-6.2-.51-5.72,5.58v15c0,1.68,0,3.36,0,5V129c0,1.68,0,3.37,0,5.05v20c0,1.65,0,3.3,0,5l0,5c0,3,0,6,0,9l0,2V190c0,1,0,2,0,3l-.24,1.09-4.07.51h-4.91a8.06,8.06,0,0,0-5.09,0h-4.91a8.06,8.06,0,0,0-5.09,0h-4.91a8.5,8.5,0,0,0-5.09-.06H143a8.47,8.47,0,0,0-5.08.06h-4.91a8.06,8.06,0,0,0-5.09,0h-4.91a8.07,8.07,0,0,0-5.07,0l-5,0a8.4,8.4,0,0,0-5.06-.06H102a6.2,6.2,0,0,0-4.08,0l-5.91,0a8.06,8.06,0,0,0-5.09,0H82.05a8.06,8.06,0,0,0-5.09,0H72.05a8.06,8.06,0,0,0-5.09,0l-5.92,0a6.2,6.2,0,0,0-4.08,0H51a8.47,8.47,0,0,0-5.08.06H41.05a8.06,8.06,0,0,0-5.09,0H31.05a8.06,8.06,0,0,0-5.09,0c-3.39.3-4.58-1.42-4.23-4.57V185l0-5-.93-5c1.36-1.46,1.2-3.19.87-4.94V164l0-4.94V134l0-5V123l0-4.94V103c1.28-5.27-1.13-6.62-5.86-5.51a12.66,12.66,0,0,0-5.84,0l-5,0C1.9,97.6-.35,96.77,0,93l0-5a14.07,14.07,0,0,0,0-6c0-1.67,0-3.34,0-5L1,75.82l4-.07,5.95.18L11,76c0,1,0,2,0,3,.12,9.1-1.18,8,7.93,8Q101,87,183.07,87C194,87,194,87,194,76l.07-.07.48,0,.44-.19h5l4.9.53A.64.64,0,0,0,205,77v5C205,83.67,205,85.34,205,87Zm-86.24,85.7c0-3.47,0-6.94,0-10.41.06-6,0-12,.24-18,.12-3.38-1.43-4.3-4.52-4.26q-12,.18-24,0C87.4,140,86,141,86,144.36q.18,18,0,35.95c0,2.88,1.07,3.76,3.82,3.7,6.15-.14,12.31,0,18.47,0C119.48,184,119.48,184,118.75,172.71ZM102.34,97.22c-21.82,0-43.65.07-65.47-.08-3.4,0-4.65.77-4.53,4.37.26,8,.24,16,0,24-.09,3.41.76,4.64,4.38,4.52,8.16-.27,16.33,0,24.48-.14,2.6,0,3.85.3,3.76,3.41-.23,8.49-.19,17,0,25.48,0,2.65-.72,3.38-3.32,3.33-8.33-.15-16.66.07-25-.12-3.11-.07-4.53.56-4.31,4a127.83,127.83,0,0,1,0,14c-.13,3,.67,4,3.87,4q17.73-.3,35.47,0c3.28.05,4.24-.87,4.2-4.17-.17-15.16,0-30.32-.15-45.47,0-3.34.6-4.56,4.27-4.51q22.49.33,45,0c3.59-.06,4.37,1,4.33,4.45-.19,15.16,0,30.32-.15,45.47,0,3.24.82,4.28,4.17,4.22q17.49-.3,35,0c3.51.07,4.46-.94,4.44-4.43q-.22-39,0-78c0-3.51-1-4.48-4.46-4.45C146.31,97.29,124.32,97.22,102.34,97.22ZM43.43,145.9c-1,4.39.62,5.72,5.08,5.52,3.84-.17,5.92-.31,5.65-5.2-.24-4.22-.82-6-5.61-5.82C44.26,140.53,42.29,141.43,43.43,145.9Z"/><path class="cls-1" d="M161.68,43l-3.47,0c-6.78.05-6.89.05-7.16-6.6-.1-2.49-.84-3.43-3.44-3.56C140,32.51,140,32.4,140,24.72c0-1,.06-2,.09-3H149l2,.31c.06,1.31.12,2.63.19,3.95-.37,7.08-.36,7.25,6.28,6.78,3.44-.24,4.89.63,4.32,4.26A40.68,40.68,0,0,0,161.68,43Z"/><path class="cls-1" d="M194,76c-11.19-.09-11.19-.09-10.89-11.24,2.49,0,5,.4,7.44,0,2.16-.35,3.3,0,3.61,2.22,0,1.68,0,3.35,0,5,0,1,0,2,0,3a1.5,1.5,0,0,0-.12.93Z"/><path class="cls-1" d="M183.23,64.89c-11.37.43-11.37.43-11.07-11.2,2.58.92,5.21.58,7.84.3h2c2.28,1.6.45,4.08,1.27,6l0,2.05C183.28,63,183.26,63.94,183.23,64.89Z"/><path class="cls-1" d="M172.29,53.86c-12.58.29-10.11,1.59-10.24-10.31h.5C172.35,43.85,172.35,43.85,172.29,53.86Z"/><path class="cls-1" d="M43,43.94a28.77,28.77,0,0,0,.11,3.48c.74,5-.82,7.6-6.34,6.64-3.19-.56-3.84,1.24-3.85,4.1,0,6.56-.15,6.67-7,6.8-2.62.05-3.85.61-4,3.59C21.67,76,21.51,76,14,76l-3,0-.07-.07L10.85,72V67l.28-2c2.65.48,5.25-.91,7.94-.13,1.53.44,2-.5,1.93-2-.11-2-.11-4-.15-6l.4-2.06c1.26,0,2.67.63,3.65-.75L26,54l5,0c2.65.11,1.62-1.61,1.45-2.91a6.69,6.69,0,0,0,0-4.24C32,42.3,36,44.25,37.94,43.23l4.93.64Z"/><path class="cls-1" d="M53.92,32.83c-.44,3.31,1.88,7.62-1.28,9.73-2.49,1.66-6.51.17-9.69,1.38l-.08-.07a1.75,1.75,0,0,0,0-.88c.48-2.75,1.28-5.52-.45-8.16.79-3.11,3.36-1.7,5.18-1.93A53.6,53.6,0,0,1,53.92,32.83Z"/><path class="cls-2" d="M21.25,55l.93-1.86c.94.29,2.42-.76,2.72,1.11C23.92,55.59,22.51,54.92,21.25,55Z"/><path class="cls-1" d="M140.25,21.88a4,4,0,0,1-.49,0c-12.15-.25-10.82,2.75-10.5-11.09l3.73,0h5l1.92.18C140,14.65,140.14,18.27,140.25,21.88Z"/><path class="cls-3" d="M145.4,11.09c1.76,0,2.55.6,2.51,2a2.58,2.58,0,0,1-2.71,2.79,1.76,1.76,0,0,1-2.11-2A2.57,2.57,0,0,1,145.4,11.09Z"/><path class="cls-1" d="M76,11c-.1,11.14-.1,11.14-11.14,11,.06-2.83.2-5.66.14-8.48,0-1.56.29-2.57,2.05-2.58L75,10.78l.46.12h.46Z"/><path class="cls-1" d="M64.92,21.82C65.1,33,65.1,33,53.81,32.93A75,75,0,0,0,54,24.46c-.22-2.6,1.4-2.47,3-2.7l5,0Z"/><path class="cls-3" d="M75,10.78,67,10.87V5h0c4,.66,5.63-1,5-5h0l4.29.1L75.58,6C70.07,6.9,74.08,9,75,10.78Z"/><path class="cls-3" d="M62,21.79l-5,0c0-.82,0-1.64,0-2.45,0-1.77.13-3.31,2.52-3.3S62,17.58,62,19.33C62,20.15,62,21,62,21.79Z"/><path class="cls-3" d="M67,5H62V0h5V5Z"/><path class="cls-3" d="M62,5c0,.33,0,.65,0,1,0,2.13-.38,4-3.09,3.93A1.67,1.67,0,0,1,57.1,8.09C57.07,5.39,58.89,5,61,5Z"/><path class="cls-1" d="M75.58,6Q75.93,3,76.29.11l.36.16L77,.08h5a10.24,10.24,0,0,0,5,0l5,0a10.48,10.48,0,0,0,5,0h5a13.71,13.71,0,0,0,6,0h5a10.48,10.48,0,0,0,5,0l5,0a9.89,9.89,0,0,0,5,0l.33.19.35-.12.88,4.91-.27,5.81L76,11l-.08-.07Z"/><path class="cls-4" d="M102.43,183.9c-1.14-4.47.83-5.37,5.12-5.5,4.79-.14,5.37,1.6,5.61,5.82.27,4.89-1.81,5-5.65,5.2C103.05,189.62,101.38,188.29,102.43,183.9Z"/><path class="cls-4" d="M194.19,75l.8.76-.44.19-.48,0A1.5,1.5,0,0,1,194.19,75Z"/></g></g></svg>