<svg xmlns="http://www.w3.org/2000/svg" viewBox="0 0 579 202"><defs><style>.cls-1{fill:#009245;}.cls-2{fill:#f15a24;}.cls-3{fill:#ed1e79;}.cls-4{fill:#fff;}</style></defs><title>Asset 2</title><g id="Layer_2" data-name="Layer 2"><g id="Layer_1-2" data-name="Layer 1"><polygon class="cls-1" points="24 126 24 114 15 114 15 72 7 72 7 61 0 61 0 43 15 43 15 24 32 24 32 6 57 6 57 0 81 0 81 6 105 6 105 18 181 18 181 12 190 12 190 6 223 6 223 12 240 12 240 18 279 18 279 6 354 6 354 0 379 0 379 18 440 18 440 24 456 24 456 47 448 47 448 53 472 53 472 77 465 77 465 101 555 101 555 107 564 107 564 126 579 126 579 144 572 144 572 155 555 155 555 161 564 161 564 197 539 197 539 202 296 202 296 167 287 167 287 150 279 150 279 138 263 138 263 126 228 126 228 120 202 120 201 126 177 126 177 132 144 132 144 126 24 126"/><polygon class="cls-2" points="48.34 24 431.44 24 431.44 107 530.66 107 530.66 196 303.97 197 303.97 114 48.34 115 48.34 24"/><polygon class="cls-3" points="308.79 113 526.52 113 526.52 190 308.79 191 308.79 113"/><polygon class="cls-3" points="53.16 30 427.99 30 427.99 106 53.16 107 53.16 30"/><polygon class="cls-4" points="57.3 38 91.75 38 91.75 50 193.73 50 193.73 38 218.53 38 218.53 50 291.57 50 291.57 38 317.06 38 317.06 50 328.08 50 328.08 38 347.38 38 347.38 50 422.48 50 422.48 93 171.68 93 171.68 100 152.38 100 152.38 93 57.48 93.82 57.3 38"/><polygon class="cls-4" points="314.31 121 357.02 121 357.02 134 422.48 134 422.48 121 450.04 121 450.04 134 521.01 134 521.01 182 314.31 182 314.31 121"/><path d="M61.61,86.3v-6h8.27v-30H61.61v-6H86.42v6H78.15v30h8.27v6Z"/><path d="M90.55,86.3v-30h24.81v6h4.13v24h-8.27v-24H98.82v24Z"/><path d="M123.63,86.3v-6H144.3v-6H127.76v-6h-4.13v-6h4.13v-6h20.67v6H131.89v6h16.54v6h4.14v6h-4.14v6Z"/><path d="M156.7,92.3v-36h24.8v6h4.14v12H181.5v6H165v12Zm8.27-18h12.4v-12H165Z"/><path d="M193.91,86.3v-6h8.26v-18H198v-6h12.4v24h8.27v6Zm8.26-36v-6h8.27v6Z"/><path d="M235.25,62.3h4.13v6h-4.13v18H227v-30h8.27Zm16.53-6v6h-12.4v-6Z"/><path d="M260.05,86.3v-6h-4.13v-6h4.13v-6h16.54v-6H260.05v-6h20.67v6h4.14v24Zm4.14-6h12.4v-6h-12.4Z"/><path d="M301.39,86.3v-24h-8.26v-6h8.26v-12h8.27v12h8.27v6h-8.27v24Z"/><path d="M326.2,86.3v-6h8.27v-18h-4.14v-6h12.41v24H351v6Zm8.27-36v-6h8.27v6Z"/><path d="M359.27,86.3v-6h-4.13v-18h4.13v-6h20.67v6h4.14v18h-4.14v6Zm4.14-6h12.4v-18h-12.4Z"/><path d="M388.21,86.3v-30H413v6h4.13v24h-8.27v-24h-12.4v24Z"/><path d="M322.07,172.7v-42h8.26v18h12.41v-18H351v42h-8.26v-18H330.33v18Z"/><path d="M359.27,172.7v-6h-4.13v-24h8.27v24h12.4v-24h8.27v30Z"/><path d="M388.21,172.7v-30H413v6h4.13v24h-8.27v-24h-12.4v24Z"/><path d="M433.69,172.7v-24h-8.27v-6h8.27v-12H442v12h8.26v6H442v24Z"/><path d="M458.49,172.7v-6h-4.13v-18h4.13v-6h20.67v6h4.14v12H462.63v6h16.53v6Zm4.14-18H475v-6h-12.4Z"/><path d="M499.83,148.7H504v6h-4.14v18h-8.26v-30h8.26Zm16.54-6v6H504v-6Z"/><rect class="cls-2" x="295.7" y="114" width="8.27" height="6"/><rect class="cls-2" x="295.7" y="120" width="8.27" height="6"/><rect class="cls-2" x="295.7" y="126" width="8.27" height="6"/><rect class="cls-2" x="287.43" y="126" width="8.27" height="6"/><rect class="cls-2" x="287.43" y="132" width="8.27" height="6"/><rect class="cls-2" x="287.43" y="138" width="8.27" height="6"/><rect class="cls-2" x="262.63" y="114" width="8.27" height="6"/><rect class="cls-2" x="254.36" y="114" width="8.27" height="6"/><rect class="cls-2" x="160.65" y="114" width="8.27" height="6"/><rect class="cls-2" x="152.38" y="114" width="8.27" height="6"/><rect class="cls-2" x="144.12" y="114" width="8.27" height="6"/><rect class="cls-2" x="152.38" y="120" width="8.27" height="6"/><rect class="cls-2" x="168.92" y="114" width="8.27" height="6"/><rect class="cls-2" x="160.65" y="120" width="8.27" height="6"/><rect class="cls-2" x="206.13" y="18" width="8.27" height="6"/><rect class="cls-2" x="197.86" y="18" width="8.27" height="6"/><rect class="cls-2" x="189.59" y="18" width="8.27" height="6"/><rect class="cls-2" x="197.86" y="12" width="8.27" height="6"/><rect class="cls-2" x="214.4" y="18" width="8.27" height="6"/><rect class="cls-2" x="206.13" y="12" width="8.27" height="6"/><rect class="cls-2" x="81.41" y="18" width="8.27" height="6"/><rect class="cls-2" x="73.15" y="18" width="8.27" height="6"/><rect class="cls-2" x="64.88" y="18" width="8.27" height="6"/><rect class="cls-2" x="73.15" y="12" width="8.27" height="6"/><rect class="cls-2" x="64.88" y="6" width="8.27" height="6"/><rect class="cls-2" x="89.68" y="18" width="8.27" height="6"/><rect class="cls-2" x="81.41" y="12" width="8.27" height="6"/><rect class="cls-2" x="304.66" y="18" width="8.27" height="6"/><rect class="cls-2" x="296.39" y="18" width="8.27" height="6"/><rect class="cls-2" x="288.12" y="18" width="8.27" height="6"/><rect class="cls-2" x="296.39" y="12" width="8.27" height="6"/><rect class="cls-2" x="312.93" y="18" width="8.27" height="6"/><rect class="cls-2" x="304.66" y="12" width="8.27" height="6"/><rect class="cls-2" x="337.73" y="18" width="8.27" height="6"/><rect class="cls-2" x="329.46" y="18" width="8.27" height="6"/><rect class="cls-2" x="321.2" y="18" width="8.27" height="6"/><rect class="cls-2" x="329.46" y="12" width="8.27" height="6"/><rect class="cls-2" x="346" y="18" width="8.27" height="6"/><rect class="cls-2" x="337.73" y="12" width="8.27" height="6"/><rect class="cls-2" x="354.27" y="12" width="8.27" height="6"/><rect class="cls-2" x="362.54" y="6" width="8.27" height="6"/><rect class="cls-2" x="439.71" y="101" width="8.27" height="6"/><rect class="cls-2" x="431.44" y="101" width="8.27" height="6"/><rect class="cls-2" x="431.44" y="95" width="8.27" height="6"/><rect class="cls-2" x="431.44" y="89" width="8.27" height="6"/><rect class="cls-2" x="431.44" y="83" width="8.27" height="6"/><rect class="cls-2" x="439.71" y="77" width="8.27" height="6"/><rect class="cls-2" x="456.24" y="65" width="8.27" height="6"/><rect class="cls-2" x="431.44" y="77" width="8.27" height="6"/><rect class="cls-2" x="447.98" y="101" width="8.27" height="6"/><rect class="cls-2" x="439.71" y="95" width="8.27" height="6"/><rect class="cls-2" x="439.71" y="71" width="8.27" height="6"/><rect class="cls-2" x="431.44" y="71" width="8.27" height="6"/><rect class="cls-2" x="431.44" y="65" width="8.27" height="6"/><rect class="cls-2" x="431.44" y="59" width="8.27" height="6"/><rect class="cls-2" x="431.44" y="53" width="8.27" height="6"/><rect class="cls-2" x="447.98" y="71" width="8.27" height="6"/><rect class="cls-2" x="439.71" y="65" width="8.27" height="6"/><rect class="cls-2" x="431.44" y="29" width="8.27" height="6"/><rect class="cls-2" x="431.44" y="35" width="8.27" height="6"/><rect class="cls-2" x="431.44" y="41" width="8.27" height="6"/><rect class="cls-2" x="431.44" y="47" width="8.27" height="6"/><rect class="cls-2" x="439.71" y="35" width="8.27" height="6"/><rect class="cls-2" x="447.98" y="89" width="8.27" height="6"/><rect class="cls-2" x="287.43" y="120" width="8.27" height="6"/><rect class="cls-2" x="287.43" y="114" width="8.27" height="6"/><rect class="cls-2" x="279.16" y="114" width="8.27" height="6"/><rect class="cls-2" x="270.9" y="114" width="8.27" height="6"/><rect class="cls-2" x="270.9" y="120" width="8.27" height="6"/><rect class="cls-2" x="279.16" y="126" width="8.27" height="6"/><rect class="cls-2" x="279.16" y="120" width="8.27" height="6"/><rect class="cls-2" x="295.7" y="132" width="8.27" height="6"/><rect class="cls-2" x="295.7" y="138" width="8.27" height="6"/><rect class="cls-2" x="295.7" y="144" width="8.27" height="6"/><rect class="cls-2" x="295.7" y="150" width="8.27" height="6"/><rect class="cls-2" x="295.7" y="156" width="8.27" height="6"/><rect class="cls-2" x="530.66" y="113" width="8.27" height="6"/><rect class="cls-2" x="530.66" y="119" width="8.27" height="6"/><rect class="cls-2" x="530.66" y="125" width="8.27" height="6"/><rect class="cls-2" x="530.66" y="131" width="8.27" height="6"/><rect class="cls-2" x="530.66" y="137" width="8.27" height="6"/><rect class="cls-2" x="530.66" y="143" width="8.27" height="6"/><rect class="cls-2" x="530.66" y="149" width="8.27" height="6"/><rect class="cls-2" x="530.66" y="155" width="8.27" height="6"/><rect class="cls-2" x="530.66" y="161" width="8.27" height="6"/><rect class="cls-2" x="530.66" y="167" width="8.27" height="6"/><rect class="cls-2" x="530.66" y="173" width="8.27" height="6"/><rect class="cls-2" x="530.66" y="179" width="8.27" height="6"/><rect class="cls-2" x="538.93" y="119" width="8.27" height="6"/><rect class="cls-2" x="547.2" y="113" width="8.27" height="6"/><rect class="cls-2" x="538.93" y="125" width="8.27" height="6"/><rect class="cls-2" x="538.93" y="131" width="8.27" height="6"/><rect class="cls-2" x="538.93" y="137" width="8.27" height="6"/><rect class="cls-2" x="547.2" y="126" width="8.27" height="6"/><rect class="cls-2" x="547.2" y="132" width="8.27" height="6"/><rect class="cls-2" x="563.73" y="132" width="8.27" height="6"/><rect class="cls-2" x="547.2" y="138" width="8.27" height="6"/><rect class="cls-2" x="538.93" y="143" width="8.27" height="6"/><rect class="cls-2" x="538.93" y="155" width="8.27" height="6"/><rect class="cls-2" x="555.46" y="144" width="8.27" height="6"/><rect class="cls-2" x="538.93" y="161" width="8.27" height="6"/><rect class="cls-2" x="538.93" y="167" width="8.27" height="6"/><rect class="cls-2" x="547.2" y="167" width="8.27" height="6"/><rect class="cls-2" x="538.93" y="173" width="8.27" height="6"/><rect class="cls-2" x="538.93" y="179" width="8.27" height="6"/><rect class="cls-2" x="547.2" y="185" width="8.27" height="6"/><rect class="cls-2" x="530.66" y="185" width="8.27" height="6"/><rect class="cls-2" x="40.07" y="30" width="8.27" height="6"/><rect class="cls-2" x="40.07" y="18" width="8.27" height="6"/><rect class="cls-2" x="49.03" y="12" width="8.27" height="6"/><rect class="cls-2" x="48.34" y="18" width="8.27" height="6"/><rect class="cls-2" x="56.61" y="18" width="8.27" height="6"/><rect class="cls-2" x="40.07" y="36" width="8.27" height="6"/><rect class="cls-2" x="40.07" y="42" width="8.27" height="6"/><rect class="cls-2" x="40.07" y="48" width="8.27" height="6"/><rect class="cls-2" x="40.07" y="54" width="8.27" height="6"/><rect class="cls-2" x="40.07" y="60" width="8.27" height="6"/><rect class="cls-2" x="40.07" y="66" width="8.27" height="6"/><rect class="cls-2" x="40.07" y="72" width="8.27" height="6"/><rect class="cls-2" x="40.07" y="78" width="8.27" height="6"/><rect class="cls-2" x="40.07" y="84" width="8.27" height="6"/><rect class="cls-2" x="40.07" y="90" width="8.27" height="6"/><rect class="cls-2" x="40.07" y="96" width="8.27" height="6"/><rect class="cls-2" x="31.8" y="36" width="8.27" height="6"/><rect class="cls-2" x="23.54" y="30" width="8.27" height="6"/><rect class="cls-2" x="31.8" y="42" width="8.27" height="6"/><rect class="cls-2" x="31.8" y="48" width="8.27" height="6"/><rect class="cls-2" x="31.8" y="54" width="8.27" height="6"/><rect class="cls-2" x="23.54" y="43" width="8.27" height="6"/><rect class="cls-2" x="23.54" y="49" width="8.27" height="6"/><rect class="cls-2" x="7" y="49" width="8.27" height="6"/><rect class="cls-2" x="23.54" y="55" width="8.27" height="6"/><rect class="cls-2" x="31.8" y="60" width="8.27" height="6"/><rect class="cls-2" x="31.8" y="72" width="8.27" height="6"/><rect class="cls-2" x="15.27" y="61" width="8.27" height="6"/><rect class="cls-2" x="31.8" y="78" width="8.27" height="6"/><rect class="cls-2" x="31.8" y="84" width="8.27" height="6"/><rect class="cls-2" x="23.54" y="84" width="8.27" height="6"/><rect class="cls-2" x="31.8" y="90" width="8.27" height="6"/><rect class="cls-2" x="31.8" y="96" width="8.27" height="6"/><rect class="cls-2" x="23.54" y="102" width="8.27" height="6"/><rect class="cls-2" x="40.07" y="102" width="8.27" height="6"/><rect class="cls-2" x="40.07" y="108" width="8.27" height="6"/><rect class="cls-2" x="40.07" y="114" width="8.27" height="6"/><rect class="cls-2" x="31.8" y="108" width="8.27" height="6"/><rect class="cls-2" x="31.8" y="114" width="8.27" height="6"/><rect class="cls-2" x="48.34" y="114" width="8.27" height="6"/><rect class="cls-2" x="64.88" y="114" width="8.27" height="6"/></g></g></svg>