<svg xmlns="http://www.w3.org/2000/svg" viewBox="0 0 168.11 142.28"><defs><style>.cls-1{fill:#231f20;}</style></defs><title>Asset 6</title><g id="Layer_2" data-name="Layer 2"><g id="Layer_1-2" data-name="Layer 1"><path class="cls-1" d="M155.21,25.89c-4,0-8.05,0-12.07,0-.79,0-.92-.23-.91-1,.05-3.71,0-7.41,0-11.12,0-.64-.2-.89-.89-.89q-18.59,0-37.17,0c-.66,0-.77.29-.76.87,0,3.55,0,7.09,0,10.64,0,1.45,0,1.45-1.49,1.45l-11.4,0c0-4.09,0-8.18,0-12.26,0-.67.29-.69.81-.69,3.73,0,7.47,0,11.2,0,.77,0,.94-.23.93-1,0-3.7,0-7.4,0-11.11,0-.7.16-.9.89-.9q18.52,0,37.07,0c.74,0,.9.2.89.9,0,3.74,0,7.47,0,11.21,0,.67.19.86.86.85,3.73,0,7.47,0,11.21,0,.7,0,.9.16.89.89C155.17,17.85,155.2,21.87,155.21,25.89Z"/><path class="cls-1" d="M77.55,25.89c-4,0-8,0-12.06,0-.69,0-.84-.23-.83-.87,0-3.71,0-7.41,0-11.11,0-.73-.16-1-.94-1q-18.42,0-36.85,0c-.38,0-.76.06-1.14.09a3.41,3.41,0,0,0,.11-1.23c0-3.64,0-7.28,0-10.92,0-.73.19-.89.9-.89Q45.28,0,63.81,0c.74,0,.89.21.88.91,0,3.73,0,7.47,0,11.2,0,.66.16.86.84.85,3.73,0,7.47,0,11.2,0,.72,0,.91.16.9.89C77.55,17.84,77.56,21.87,77.55,25.89Z"/><path class="cls-1" d="M12.92,25.88q0,13.31,0,26.61c0,4,0,8.1,0,12.16q-6.18,0-12.35,0c-.42,0-.6-.12-.54-.54a3.84,3.84,0,0,0,0-.48Q0,45.29,0,26.9c0-.85.21-1,1-1C5,25.92,9,25.89,12.92,25.88Z"/><path class="cls-1" d="M155.21,64.65c0-.77,0-1.53,0-2.3q0-17.76,0-35.51c0-.32,0-.64,0-1,4,0,8,0,12.07,0,.66,0,.84.15.84.83q0,18.59,0,37.16c0,.67-.17.85-.84.84C163.25,64.66,159.23,64.66,155.21,64.65Z"/><path class="cls-1" d="M12.9,64.63c4,0,8,.05,12,0,.89,0,1.05.28,1,1.09,0,3.61,0,7.22,0,10.83,0,.92.3,1.1,1.13,1.09,3.61,0,7.22,0,10.83,0,.72,0,1,.14,1,.93,0,4,0,8,0,12-4,0-8.11,0-12.16,0-.64,0-.8-.17-.8-.79,0-3.74,0-7.47,0-11.2,0-.75-.2-.95-.95-.95-3.64,0-7.27,0-10.91,0-1,0-1.12-.29-1.11-1.17C13,72.55,12.91,68.59,12.9,64.63Z"/><path class="cls-1" d="M129.32,90.53c0-4,0-8,0-12,0-.79.26-.94,1-.93,3.61,0,7.22,0,10.83,0,.84,0,1.15-.17,1.13-1.09-.06-3.61,0-7.22,0-10.83,0-.81.16-1.1,1-1.09,4,0,8,0,12,0,0,4-.07,7.92,0,11.87,0,1-.3,1.18-1.21,1.16-3.64,0-7.28,0-10.91,0-.68,0-.85.18-.85.84,0,3.73,0,7.47,0,11.2,0,.72-.18.9-.89.89C137.36,90.52,133.34,90.53,129.32,90.53Z"/><path class="cls-1" d="M90.57,25.88c0,4,0,8,0,12,0,.81-.23,1-1,1q-5.5-.07-11,0c-.79,0-1-.19-1-1,0-4,0-8,0-11.95Z"/><path class="cls-1" d="M38.79,90.52c4,0,8,0,12,0,.74,0,1,.18,1,.95-.05,4,0,8.05-.05,12.08-4,0-7.91-.06-11.87,0-.81,0-1.07-.15-1.06-1C38.82,98.5,38.79,94.51,38.79,90.52Z"/><path class="cls-1" d="M116.43,103.54c0-4.12,0-8.24-.05-12.37,0-.7.41-.64.87-.64h12.08c0,4,0,8,0,12.06,0,.78-.24.93-1,.93C124.4,103.49,120.42,103.52,116.43,103.54Z"/><path class="cls-1" d="M51.67,103.52c4,0,8.11,0,12.16,0,.67,0,.86.2.86.87,0,4,0,8.05,0,12.07-4,0-8,0-12.06,0-.78,0-.94-.23-.93-1C51.72,111.49,51.68,107.51,51.67,103.52Z"/><path class="cls-1" d="M103.43,116.42c0-4,0-8,0-12.07,0-.67.18-.87.85-.87,4.06,0,8.11,0,12.17,0,0,4,0,8,0,12,0,.73-.16,1-.93,1C111.47,116.39,107.45,116.42,103.43,116.42Z"/><path class="cls-1" d="M25.75,13a2.75,2.75,0,0,1,.1.56q0,6.16,0,12.34h0l-12.95,0c0-4,0-8,0-12.06,0-.71.17-.91.89-.9,3.73,0,7.47,0,11.2,0A6.36,6.36,0,0,1,25.75,13Z"/><path class="cls-1" d="M64.67,116.41c4,0,8,0,12,0,.71,0,1,.13,1,.93,0,4,0,8,0,12-4,0-8,0-12,0-.64,0-.86-.12-.86-.82C64.68,124.5,64.67,120.45,64.67,116.41Z"/><path class="cls-1" d="M90.57,129.35c0-4.1,0-8.21,0-12.32,0-.74.43-.63.87-.63h12c0,4.07,0,8.15,0,12.23,0,.62-.21.72-.76.72C98.67,129.34,94.62,129.35,90.57,129.35Z"/><path class="cls-1" d="M77.65,142.27c0-4.1,0-8.21,0-12.32,0-.74.43-.63.87-.63h12c0,4.07,0,8.15,0,12.23,0,.62-.21.72-.76.72C85.75,142.26,81.7,142.27,77.65,142.27Z"/></g></g></svg>