<svg xmlns="http://www.w3.org/2000/svg" viewBox="0 0 310.57 305.96"><defs><style>.cls-1{fill:#009245;}.cls-2{fill:#ed1e79;}.cls-3{fill:#f15a24;}.cls-4{fill:#fff;}</style></defs><title>Asset 3</title><g id="Layer_2" data-name="Layer 2"><g id="Layer_1-2" data-name="Layer 1"><polygon class="cls-1" points="96.09 21.22 214.02 21.22 214.02 46.09 261.01 46.09 261.01 94.01 287.27 94.01 287.27 211.94 261.01 211.94 261.01 258.93 214.02 258.93 214.02 284.27 96.09 284.27 96.09 258.93 49.09 258.93 49.09 211.94 22.38 211.94 22.38 94.01 49.09 94.01 49.09 46.55 96.09 46.55 96.09 21.22"/><path class="cls-2" d="M237.54,188.48H214.11v23.39H190.56v23.59h-71V212H96.16V188.48H72.56v-71H96V94.08h23.55V70.48h71V93.92H214v23.55h23.59Z"/><path class="cls-3" d="M119.61,70.55V47H190.5V70.55l.06-.07h-71Z"/><path class="cls-3" d="M72.63,188.42H49.07V117.53H72.63l-.07-.06v71Z"/><path class="cls-3" d="M237.48,117.53H261v70.89H237.48l.06.06v-71Z"/><path class="cls-4" d="M143.5,94.11h23.55V211.84H143.5l.06.1V94Z"/><path class="cls-4" d="M96.41,164.75V141.2H214.14v23.55l.1-.06H96.31Z"/><path class="cls-3" d="M190.5,235.4V259H119.61V235.4l-.06.07h71Z"/><path class="cls-3" d="M72.63,117.53q0-20.81-.1-41.62V70.55c.83,0,1.42-.1,2-.1h43.92c.38,0,.76.06,1.14.09l-.06-.07v23.6H96v23.39H72.56Z"/><path class="cls-3" d="M190.5,70.55l39.08-.1h7.9v47.08l.06-.06H214V93.92H190.56V70.48Z"/><path class="cls-3" d="M119.61,235.4l-41.15.09H72.53v-3.85q0-20.68,0-41.39c0-.61.06-1.22.09-1.83l-.07.06h23.6V212h23.39v23.44Z"/><path class="cls-3" d="M237.48,188.42q0,23.1.07,46.21a.69.69,0,0,1-.84.84l-46.21-.07.06.06V211.87h23.55V188.48h23.43Z"/><path class="cls-1" d="M119.15,23.56V0H190V23.56l.06-.07h-71Z"/><path class="cls-1" d="M119.15,306V282.4H190V306l.06-.06h-71Z"/><path class="cls-1" d="M23.56,188.2H0V117.3H23.56l-.07-.06v71Z"/><path class="cls-1" d="M310.57,188.2H287V117.3h23.56l-.07-.06v71Z"/></g></g></svg>