<svg xmlns="http://www.w3.org/2000/svg" viewBox="0 0 210.06 234.92"><defs><style>.cls-1{fill:#131313;}</style></defs><title>Asset 8</title><g id="Layer_2" data-name="Layer 2"><g id="Layer_1-2" data-name="Layer 1"><path class="cls-1" d="M25,123.38l-12.47,0V61.7l12.47,0-.06,0v61.75Z"/><path class="cls-1" d="M197.59,123.41l-12.47,0,0,.05V61.68l0,0,12.47,0Z"/><path class="cls-1" d="M135.88,0l0,12.47,0-.05H74.15l.06.05L74.18,0Z"/><path class="cls-1" d="M25,222.42l-12.47,0V185.11l12.47,0-.06-.06v37.39Z"/><path class="cls-1" d="M197.59,222.44l-12.47,0,0,.05V185.08l0,.06,12.47,0Z"/><path class="cls-1" d="M25,61.73c0-7.65,0-15.29-.06-22.94,0-1.52.26-2.09,1.94-2,3.51.15,7,.06,10.56.07l0-.05c0,7.64,0,15.28.06,22.91,0,1.52-.28,2.12-1.95,2-3.51-.14-7-.06-10.56-.06Z"/><path class="cls-1" d="M49.32,24.91c0-3.52.08-7-.07-10.56-.08-1.67.5-2,2-1.94,7.65.08,15.29.05,22.94.06l-.06-.05c0,3.52-.08,7,.07,10.55.07,1.67-.52,2-2,2-7.64-.08-15.28-.05-22.92-.06Z"/><path class="cls-1" d="M37.39,36.84c0-3.42,0-6.85,0-10.27,0-1.35.36-1.75,1.7-1.71,3.43.1,6.85.05,10.28.05l-.06-.05c0,3.42,0,6.84.06,10.26,0,1.35-.37,1.76-1.72,1.72-3.42-.1-6.84,0-10.26-.05Z"/><path class="cls-1" d="M172.67,36.84c3.52,0,7.05.08,10.57-.07,1.67-.07,1.95.5,1.94,2-.09,7.65-.05,15.29-.06,22.94l0,0c-3.52,0-7-.08-10.56.06-1.67.08-2-.52-2-2,.09-7.63.06-15.27.07-22.91Z"/><path class="cls-1" d="M135.86,12.47c7.64,0,15.29,0,22.93-.06,1.52,0,2.1.27,2,1.94-.16,3.52-.07,7-.08,10.56l.06-.05c-7.64,0-15.28,0-22.92.06-1.51,0-2.11-.28-2-2,.15-3.51.06-7,.07-10.55Z"/><path class="cls-1" d="M160.74,24.91c3.43,0,6.86.05,10.28-.05,1.35,0,1.75.36,1.71,1.71-.1,3.42,0,6.85-.06,10.27l.06-.05c-3.43,0-6.85,0-10.26.05-1.36,0-1.77-.37-1.73-1.72.1-3.42,0-6.84.06-10.26Z"/><path class="cls-1" d="M172.67,148.27v24.42l.06-.05-36.87.05c0-3.28.1-6.56,0-9.84-.07-1.66.38-2.18,2.11-2.15,7,.1,14,0,21,.07,1.45,0,1.93-.38,1.87-1.86-.11-2.93,0-5.87-.06-8.8-.06-1.5.46-1.89,1.89-1.85,3.36.11,6.73.05,10.1.06Z"/><path class="cls-1" d="M185.12,123.38c0,7.65,0,15.29.06,22.94,0,1.52-.27,2.09-1.94,2-3.52-.15-7.05-.06-10.57-.07l.06,0c0-7.64,0-15.28-.07-22.92,0-1.51.28-2.11,2-2,3.52.15,7,.06,10.56.07Z"/><path class="cls-1" d="M172.67,172.69c3.6,0,7.2,0,10.79-.06,1.35,0,1.75.37,1.71,1.71-.1,3.6,0,7.2,0,10.8l0-.06c-3.59,0-7.19,0-10.78.06-1.35,0-1.76-.37-1.72-1.73.09-3.59.05-7.18.06-10.77Z"/><path class="cls-1" d="M197.56,222.47c3.6,0,7.2,0,10.79-.06,1.35,0,1.75.36,1.71,1.71-.1,3.6-.05,7.2-.05,10.79l.05,0c-3.59,0-7.19,0-10.78.06-1.35,0-1.76-.37-1.72-1.73.09-3.59,0-7.18.05-10.78Z"/><path class="cls-1" d="M37.39,172.69V148.27l0,0c3.36,0,6.73.05,10.09-.06,1.44,0,2,.35,1.89,1.85-.11,2.84.08,5.7-.07,8.54-.08,1.71.47,2.15,2.14,2.13,6.91-.1,13.81,0,20.71-.08,1.73,0,2.18.49,2.12,2.15-.12,3.28,0,6.56,0,9.84l-36.87-.05Z"/><path class="cls-1" d="M37.39,148.27c-3.52,0-7-.08-10.56.07-1.67.07-2-.5-1.94-2,.08-7.65.05-15.29.06-22.94l-.06.05c3.52,0,7.05.08,10.56-.07,1.67-.07,2,.53,1.95,2-.08,7.64,0,15.28-.06,22.92Z"/><path class="cls-1" d="M25,185.14c0-3.6,0-7.2-.06-10.8,0-1.34.36-1.74,1.71-1.71,3.6.1,7.19.05,10.79.06l0-.05c0,3.59,0,7.18.06,10.77,0,1.36-.37,1.77-1.73,1.73-3.59-.1-7.18,0-10.78-.06Z"/><path class="cls-1" d="M.06,234.91c0-3.59,0-7.19-.06-10.79,0-1.35.36-1.75,1.71-1.71,3.6.1,7.2.05,10.79.06l-.05-.06c0,3.6,0,7.19.06,10.78,0,1.36-.37,1.76-1.73,1.73-3.59-.1-7.18,0-10.78-.06Z"/><path class="cls-1" d="M135.91,172.64c0,3.37-.14,6.74,0,10.1.1,1.94-.44,2.43-2.39,2.42-17.63-.09-35.25,0-52.87-.06-2.06,0-4.78.7-6-.34-1.45-1.22-.36-4-.47-6.16s0-4,0-6Z"/></g></g></svg>