<svg xmlns="http://www.w3.org/2000/svg" viewBox="0 0 206.87 191.91"><defs><style>.cls-1{fill:#ed1e79;}</style></defs><title>Asset 5</title><g id="Layer_2" data-name="Layer 2"><g id="Layer_1-2" data-name="Layer 1"><path d="M114.37,152.39V0h92.5V145.54l-6.08.58-.69,6.12-5.86.46-.6,6-6.27.62c-.16,2.18-.31,4.11-.46,6.19l-6,.62c-.3,2.16-.56,4.09-.83,6.09l-5.87.49-.65,6-6.27.56-.42,6.21-6,.59-.8,5.88h-6V152.39ZM154,145.66V46.94l6.47-.9.7-6,5.94-.64c.22-2,.43-4,.67-6.2l6.19-.52.36-5.82,6.19-.61c.22-2.05.42-4,.65-6.18l6-.6c.21-2,.41-3.92.63-6l6-.62V6.41H121V145.66Zm13.2-46.08H161v12.78h6.18Z"/><path class="cls-1" d="M0,94.21H90v14.94h9.86v-4.71h9.93l.3-5.17h9.7l.26-5h9.89V89.4h9.94v-5h5V79.54L140,79.27V74.62h-9.83l-.25-5H120V64.41H110l-.24-4.88H100V54.75H90.13V69.38H0Z"/></g></g></svg>